<svg xmlns="http://www.w3.org/2000/svg" xmlns:xlink="http://www.w3.org/1999/xlink" version="1.1" id="Capa_1" x="0px" y="0px" viewBox="0 0 487.622 487.622" style="enable-background:new 0 0 487.622 487.622;" xml:space="preserve">
<g>
	<g>
		<circle style="fill:#CF6F55;" cx="243.811" cy="243.811" r="243.811"/>
		<path style="fill:#C06046;" d="M480.306,303.329l-102.79-157.346l-145.688-26.551l-83.061,67.379l-19.051,159.247l106.101,141.419    c2.661,0.086,5.328,0.145,8.01,0.145C357.946,487.622,453.741,409.209,480.306,303.329z"/>
		<path style="fill:#FFFFFF;" d="M84.54,243.811c0,87.964,71.308,159.271,159.271,159.271s159.271-71.307,159.271-159.271    S331.775,84.54,243.811,84.54S84.54,155.847,84.54,243.811z M156.923,243.811l76.963-88.502h64.812l-76.963,88.502l76.963,88.502    h-64.812L156.923,243.811z"/>
	</g>
</g>
</svg>
